# 3ds Max Wavefront OBJ Exporter v0.97b - (c)2007 guruware
# File Created: 09.04.2019 23:12:16

mtllib marsground2.mtl

#
# object Plane
#

v  -1.8349 0.2110 -6.7475
v  1.2859 0.0947 -9.2113
v  -3.9067 0.2443 -9.1096
v  4.3334 0.1389 -1.1931
v  4.1373 0.5159 3.0788
v  5.9117 0.3467 2.7608
v  6.1521 0.2048 -15.8268
v  9.3480 0.8060 -13.3480
v  8.2942 0.3991 -16.0420
v  4.1747 -0.0357 -15.6034
v  14.3978 -0.4116 -3.8224
v  15.1690 -0.2800 -4.8916
v  12.6837 -0.1405 -5.1423
v  18.4028 -0.1304 -2.2387
v  16.7453 -0.0185 -5.8504
v  16.5702 -0.4496 -2.7324
v  10.8858 -0.5823 3.7566
v  9.3584 -0.0891 0.9666
v  8.1503 -0.1000 2.9687
v  14.0894 0.2603 -6.8639
v  11.9512 0.1226 -6.3455
v  12.3601 0.8508 -9.8084
v  7.9734 0.1530 -0.1294
v  9.3350 0.0815 -2.1754
v  6.6476 0.1491 -0.3300
v  8.4221 0.8836 -9.6387
v  7.7608 0.9173 -9.7574
v  10.3602 0.1634 -6.5833
v  -2.1564 0.5687 2.1343
v  1.3286 0.9848 2.2501
v  -0.8823 0.1942 -1.5131
v  11.1207 0.7632 -11.8482
v  13.5506 0.9928 -11.5344
v  11.8689 0.5302 -13.0989
v  16.8277 0.2817 -7.8352
v  17.6940 0.2693 -10.6059
v  13.5994 0.9927 -11.0701
v  16.4236 -0.8858 3.2459
v  19.7877 -0.1381 4.7358
v  19.5808 -0.2751 2.4501
v  19.7844 0.0440 6.5885
v  10.3284 0.9158 -9.3440
v  13.0558 -0.6053 -3.3616
v  12.3668 -0.6367 -2.6218
v  12.7939 -0.6612 -2.6148
v  7.7176 -0.2800 -3.5734
v  7.3142 -0.0399 -5.1159
v  6.8195 0.0058 -5.4136
v  6.2901 0.0673 -5.7401
v  18.2174 -0.0303 -3.9511
v  18.2529 0.0270 -5.1374
v  15.9754 0.0818 -7.0912
v  10.4892 0.2155 -4.1586
v  10.5698 0.2394 -5.2507
v  9.0300 -0.1003 -5.0857
v  4.5070 0.4398 4.6393
v  1.6604 1.0341 4.7855
v  1.7041 0.3744 8.8403
v  3.0470 0.2247 8.7130
v  -4.4074 0.2908 -1.2871
v  18.8659 -0.1512 7.8603
v  17.3352 -0.1753 8.9877
v  15.4242 0.0878 -16.0600
v  14.3346 0.6899 -12.7375
v  17.5236 0.0090 -14.7392
v  13.3611 0.2571 -16.4070
v  18.5493 -0.1830 -12.6024
v  19.4357 -0.4233 -10.2556
v  19.1597 -0.3663 -11.5302
v  14.6558 -0.3819 -2.0783
v  15.2978 -0.5577 -1.2516
v  15.8909 -0.5754 -1.9215
v  7.6148 0.0681 0.8641
v  14.5220 -1.0855 4.8227
v  14.4743 -1.1127 2.8831
v  7.1828 -0.0144 -5.5631
v  7.9301 0.1418 -5.8664
v  14.1432 -0.8824 6.3060
v  12.5895 -0.5458 8.9181
v  14.2200 -0.5885 8.9393
v  15.6132 -0.5327 8.9219
v  14.4503 0.7484 -12.1188
v  13.6625 -0.5494 -1.6616
v  14.4332 -0.6133 -0.8933
v  12.1297 -0.5674 5.3301
v  12.1985 0.2835 -16.4793
v  -5.0030 0.2483 -10.8301
v  -4.4848 0.3929 -10.5565
v  -5.0613 0.0251 -11.3218
v  -4.9514 0.4609 -10.3148
v  11.9107 -0.0901 -4.9839
v  10.5989 -0.0254 -2.6917
v  10.4640 0.1891 -3.6734
v  10.3168 0.1536 -3.0982
v  10.1377 0.1228 -2.6474
v  -3.9366 -0.8284 -14.8054
v  -4.5983 -0.7989 -14.8434
v  -5.0914 -0.0845 -11.6816
v  -0.3050 1.0360 3.6327
v  10.7603 -0.5225 1.4396
v  12.0026 -0.5495 -2.9562
v  5.5678 0.2185 -7.2663
v  6.2176 0.0630 -6.4492
v  6.0983 0.1152 -7.1794
v  4.5154 0.3781 -7.4318
v  19.1187 -0.3074 -8.4306
v  17.9783 0.0400 -7.5520
v  17.6619 0.1133 -6.4472
v  18.4938 -0.0653 -6.4051
v  8.0572 0.3064 -6.5934
v  8.5385 0.3952 -6.6145
v  7.3891 0.5685 -7.7543
v  6.8587 -0.0182 -6.5733
v  -3.8759 0.4956 3.7667
v  -1.7248 0.4705 8.8028
v  -0.1616 0.4962 8.8101
v  -3.2932 0.4435 8.7649
v  -5.5535 0.2947 3.3227
v  -5.4188 0.3214 4.9844
v  18.8849 -0.1399 -9.8990
v  18.0552 0.1992 -10.2713
v  14.9484 -1.0037 1.9225
v  15.9640 -0.5943 -1.1519
v  14.0759 -0.7576 0.2619
v  13.0315 -0.4947 -0.8510
v  12.3772 -0.4060 0.0590
v  13.3712 -0.5310 -1.2148
v  11.8668 0.2979 -14.8444
v  9.9994 0.3737 -16.2340
v  11.2926 0.2835 -16.3855
v  1.7582 -0.2411 -15.2473
v  4.9064 0.5674 -9.6911
v  15.6525 -0.4025 -4.3452
v  15.2903 -0.4575 -2.7531
v  14.4714 -0.4285 -3.3459
v  18.3159 -0.1562 -13.5625
v  17.4066 -0.1070 -15.3707
v  -5.3554 0.2907 -1.6201
v  -5.3083 0.2528 -6.8279
v  11.3656 -0.2627 -0.9768
v  10.3990 0.0021 -1.9883
v  10.0535 0.1090 -0.5614
v  19.2361 -0.0700 7.4672
v  -3.7246 -0.4643 -12.6707
v  -2.3140 -0.2727 -12.9882
v  10.9686 -0.4059 8.7409
v  9.5297 -0.2444 8.5302
v  -3.4329 0.0272 -11.3881
v  -4.3521 -0.2676 -11.9797
v  18.9882 -0.2423 0.0101
v  15.8138 -0.3273 -5.2327
v  6.4712 0.0366 -6.9012
v  6.8282 0.7539 -8.6395
v  9.9733 0.1620 -2.7956
v  8.4067 -0.2247 -3.6306
v  -4.8561 0.5070 8.3849
v  -5.4058 0.3909 6.1521
v  -5.4295 0.4862 7.5115
v  -5.2010 0.5059 7.9855
v  17.4175 0.1357 -6.8243
v  16.0711 -0.0617 -6.5175
v  17.4886 0.1181 -6.3798
v  10.1317 0.1786 -3.2758
v  12.0963 -0.6098 -2.2654
v  14.9940 0.2015 -6.6510
v  11.3058 0.1263 -5.2717
v  11.7458 -0.5135 -2.4687
v  14.8949 0.2332 -7.1596
v  15.3923 0.1649 -6.8821
v  12.9235 -0.6003 4.4593
v  13.0313 -0.8400 1.7979
v  14.3047 -1.0685 1.9004
v  12.5309 -0.7555 1.6235
v  -5.3241 0.2653 -0.7523
v  -5.3337 0.2300 0.3524
v  6.4655 -0.0037 -6.4938
v  6.3712 0.0179 -6.7441
v  6.2197 0.0497 -6.7111
v  13.4261 -0.8843 1.3719
v  12.2965 -0.4157 -0.4951
v  6.1546 -0.0527 7.0932
v  -0.2047 -0.4177 -15.2558
v  -2.1401 -0.6175 -15.2952
v  -3.3472 0.1576 -10.5238
v  -5.0001 0.5061 -9.2790
v  -5.1563 0.3859 -8.2404
v  -4.4699 0.4303 -10.1955
v  -4.5575 0.4305 -9.8043
v  5.7238 0.2372 -7.6051
v  5.4423 0.3682 -8.0383
v  4.4547 0.4748 -8.6139
v  4.5872 0.0772 8.5482
v  6.0752 -0.0061 8.4284
v  7.3985 -0.0645 8.3748
v  7.9218 0.9170 -10.0416
v  7.8376 0.5485 -7.5352
v  7.5346 0.6074 -7.9384
v  6.3575 0.9007 -9.7122
v  16.5223 -0.3770 8.9834
v  9.8902 0.0676 -2.0764
v  11.8563 0.9319 -10.6971
v  14.1872 0.8143 -12.1704
v  -5.3543 0.1815 -5.1009
v  -5.3519 0.1749 -3.4916
v  12.9629 -0.7700 1.1898
v  5.2742 0.4609 -8.4661
v  0.8080 0.4645 8.8476
v  18.3298 0.0102 -5.8079
v  -3.2637 -0.7790 -15.2489
v  -3.9562 -0.8551 -15.1029
v  10.7425 0.1845 -4.2034
v  10.8625 0.1305 -4.0363
v  2.9640 -0.1490 -15.3867
v  -5.0476 -0.6397 -14.2873
v  -5.1614 -0.4069 -13.2514
v  18.4400 0.0184 8.7989
v  19.3919 0.1451 8.3888
v  19.7463 0.1460 7.7291
v  8.4448 -0.1373 8.4084
v  10.1473 0.1845 -3.0737
v  13.1365 -0.8443 1.3996
v  -4.9411 0.5390 -9.8841
v  -4.2786 0.4709 8.6352
v  14.7113 0.2236 -6.6842
v  15.0549 0.2102 -6.8991
v  -5.5050 0.3031 4.2001
v  19.3779 -0.3954 -9.3072
v  18.1391 0.1192 -10.6578
v  18.3272 -0.2099 -14.2718
# 229 vertices

vn 0.0791 0.9968 0.0113
vn -0.0727 0.9962 -0.0484
vn 0.0155 0.9988 0.0470
vn 0.1138 0.9902 0.0811
vn 0.0131 0.9938 -0.1108
vn -0.1158 0.9927 0.0347
vn -0.0710 0.9922 0.1029
vn 0.0602 0.9980 0.0173
vn 0.0529 0.9986 0.0060
vn 0.0099 0.9987 0.0504
vn 0.0281 0.9921 0.1220
vn 0.0361 0.9989 0.0310
vn -0.0074 0.9988 0.0491
vn 0.0411 0.9989 -0.0243
vn -0.0593 0.9966 -0.0568
vn 0.0506 0.9986 -0.0151
vn 0.2181 0.9747 -0.0498
vn -0.1836 0.9800 -0.0772
vn -0.0998 0.9931 0.0608
vn -0.0150 0.9897 0.1427
vn 0.1018 0.9934 0.0533
vn -0.0258 0.9997 0.0046
vn 0.0831 0.9965 0.0008
vn -0.0066 0.9892 0.1466
vn 0.0263 0.9978 0.0607
vn -0.0151 0.9837 -0.1791
vn 0.0814 0.9787 0.1885
vn -0.0812 0.9966 -0.0106
vn -0.0223 0.9995 -0.0209
vn -0.0750 0.9896 0.1230
vn 0.1328 0.9900 0.0479
vn -0.1820 0.9757 -0.1220
vn 0.1182 0.9822 -0.1462
vn 0.1962 0.9747 -0.1073
vn 0.1455 0.9871 -0.0674
vn 0.4302 0.9018 -0.0414
vn 0.3410 0.9394 -0.0336
vn 0.0398 0.9986 0.0353
vn 0.0503 0.9910 0.1242
vn 0.0410 0.9962 -0.0764
vn 0.0545 0.9985 -0.0042
vn -0.0597 0.9973 0.0439
vn -0.1043 0.9889 0.1055
vn 0.0924 0.9927 -0.0776
vn 0.0848 0.9950 -0.0520
vn 0.2086 0.9729 -0.1001
vn -0.0630 0.9978 0.0208
vn 0.0037 0.9899 0.1416
vn 0.0528 0.9984 -0.0218
vn 0.1671 0.9834 -0.0702
vn 0.0675 0.9970 -0.0370
vn 0.2105 0.9627 0.1701
vn 0.2687 0.9627 0.0312
vn 0.1254 0.9592 -0.2534
vn 0.0026 0.9971 0.0765
vn 0.0200 0.9920 0.1244
vn 0.1341 0.9862 0.0974
vn 0.2668 0.9633 -0.0302
vn 0.3380 0.9402 0.0422
vn 0.0307 0.9885 0.1482
vn -0.0015 0.9975 0.0704
vn 0.0994 0.9948 -0.0228
vn 0.0200 0.9796 0.2002
vn -0.1393 0.9517 0.2736
vn -0.1069 0.9943 -0.0036
vn -0.0971 0.9952 -0.0091
vn 0.1516 0.9872 0.0494
vn 0.2916 0.9563 -0.0212
vn -0.0617 0.9959 0.0658
vn 0.0236 0.9982 0.0558
vn 0.1113 0.9936 -0.0202
vn 0.1678 0.9801 0.1059
vn 0.0240 0.9997 -0.0111
vn -0.0944 0.9955 -0.0017
vn 0.0025 0.9963 0.0855
vn 0.1022 0.9948 0.0021
vn -0.0493 0.9987 0.0139
vn 0.3102 0.9490 -0.0563
vn 0.2201 0.9541 -0.2030
vn -0.0066 0.9999 -0.0083
vn 0.1877 0.9812 -0.0439
vn 0.2457 0.9692 0.0153
vn -0.0858 0.9962 -0.0126
vn -0.0241 0.9693 -0.2448
vn -0.0758 0.9852 -0.1539
vn 0.1020 0.9947 -0.0124
vn 0.0704 0.9775 -0.1989
vn -0.1330 0.9911 -0.0110
vn -0.0146 0.9863 0.1643
vn -0.0431 0.9681 0.2467
vn -0.0748 0.9707 0.2286
vn -0.0505 0.9974 0.0517
vn 0.0879 0.9937 -0.0701
vn -0.0085 0.9995 0.0301
vn 0.1009 0.9908 -0.0899
vn -0.0455 0.9966 0.0685
vn 0.1695 0.9842 -0.0521
vn 0.1100 0.9836 0.1432
vn 0.2162 0.9714 0.0981
vn 0.3187 0.9474 0.0281
vn 0.1027 0.9913 0.0827
vn 0.1681 0.9803 0.1033
vn 0.1654 0.9862 -0.0124
vn 0.1894 0.9819 -0.0024
vn 0.0271 0.9944 0.1021
vn 0.1537 0.9866 0.0548
vn 0.0840 0.9964 0.0148
vn -0.1018 0.9946 -0.0206
vn 0.1035 0.9912 0.0822
vn 0.3931 0.9195 -0.0016
vn 0.1477 0.9793 0.1385
vn 0.1380 0.9881 -0.0680
vn 0.1227 0.9922 0.0221
vn -0.1216 0.9803 -0.1557
vn 0.1179 0.9881 -0.0987
vn 0.2239 0.9694 0.1007
vn 0.2101 0.9761 0.0554
vn -0.0034 0.9880 0.1542
vn -0.0140 0.9718 0.2356
vn 0.1325 0.9865 0.0963
vn 0.0485 0.9983 -0.0319
vn 0.0638 0.9966 -0.0526
vn 0.0019 1.0000 -0.0087
vn 0.0332 0.9881 0.1499
vn -0.1245 0.9912 0.0447
vn -0.2030 0.9757 -0.0830
vn 0.0644 0.9967 0.0504
vn -0.0405 0.9991 -0.0153
vn 0.1419 0.9790 -0.1465
vn -0.0002 0.9998 0.0174
vn -0.0514 0.9977 -0.0445
vn 0.1839 0.9652 0.1861
vn -0.0937 0.9765 0.1943
vn 0.0592 0.9868 0.1508
vn 0.1767 0.9839 -0.0259
vn -0.1545 0.9776 -0.1428
vn -0.0517 0.9950 -0.0858
vn 0.1918 0.9754 0.1086
vn 0.2874 0.9474 0.1408
vn -0.0962 0.9911 -0.0918
vn 0.0858 0.9740 -0.2095
vn 0.0987 0.9738 -0.2048
vn -0.2194 0.9378 -0.2689
vn -0.2928 0.9312 -0.2169
vn -0.3263 0.9354 -0.1362
vn 0.0774 0.9958 -0.0491
vn 0.0435 0.9984 0.0357
vn 0.2067 0.9724 0.1084
vn 0.2835 0.9570 -0.0617
vn 0.0520 0.9970 -0.0571
vn 0.0450 0.9872 0.1529
vn 0.1118 0.9915 0.0667
vn -0.1192 0.9929 -0.0068
vn 0.4353 0.8999 0.0258
vn 0.3514 0.9322 -0.0872
vn 0.2176 0.9735 -0.0705
# 156 vertex normals

o Plane
g Plane
usemtl Rock
s 2
f 1//1 2//2 3//3 
f 4//3 5//4 6//1 
f 7//2 8//5 9//6 
f 7//2 10//3 8//5 
f 11//7 12//4 13//3 
f 14//3 15//6 16//7 
f 17//8 18//9 19//10 
f 20//10 21//11 13//3 
f 21//11 20//10 22//12 
f 23//12 24//10 25//9 
f 26//13 27//11 28//10 
f 29//10 30//12 31//13 
f 32//14 33//15 34//16 
f 35//16 36//17 37//14 
f 38//15 39//18 40//19 
f 41//19 39//18 38//15 
f 25//9 4//3 6//1 
f 8//5 42//19 32//14 
f 8//5 32//14 34//16 
f 43//20 44//21 45//22 
f 46//23 47//24 48//25 
f 46//23 48//25 49//23 
f 50//26 15//6 14//3 
f 50//26 51//25 15//6 
f 37//14 52//27 35//16 
f 53//28 54//29 55//30 
f 6//1 5//4 56//31 
f 57//31 58//28 59//27 
f 31//13 60//29 29//10 
f 61//28 38//15 62//32 
f 63//33 64//34 65//35 
f 66//35 64//34 63//33 
f 67//34 68//36 69//37 
f 4//3 2//2 31//13 
f 70//38 71//39 72//35 
f 23//12 25//9 73//38 
f 23//12 73//38 18//9 
f 74//40 38//15 75//41 
f 76//42 47//24 77//43 
f 26//13 28//10 42//19 
f 78//44 79//45 80//40 
f 80//40 81//43 78//44 
f 36//17 82//46 33//15 
f 70//38 83//47 84//48 
f 45//22 83//47 43//20 
f 78//44 85//49 79//45 
f 64//34 66//35 86//49 
f 4//3 25//9 46//23 
f 87//26 88//50 89//51 
f 88//50 87//26 90//26 
f 21//11 91//52 13//3 
f 92//53 93//51 94//50 
f 92//53 94//50 95//51 
f 96//51 97//53 98//54 
f 30//12 99//55 57//31 
f 17//8 100//56 18//9 
f 44//21 43//20 101//57 
f 102//57 103//58 104//55 
f 49//23 103//58 102//57 
f 102//57 105//57 49//23 
f 106//59 107//60 108//61 
f 108//61 109//62 106//59 
f 110//60 111//63 112//64 
f 112//64 113//61 110//60 
f 114//65 115//62 116//61 
f 117//61 115//62 114//65 
f 60//29 118//66 114//65 
f 60//29 114//65 29//10 
f 119//66 117//61 114//65 
f 67//34 120//67 68//36 
f 106//59 121//68 107//60 
f 122//67 123//69 71//39 
f 122//67 71//39 84//48 
f 124//70 125//71 126//72 
f 125//71 124//70 127//73 
f 128//73 129//70 9//6 
f 130//74 129//70 128//73 
f 131//70 2//2 132//74 
f 133//75 134//76 16//7 
f 134//76 133//75 11//7 
f 11//7 135//77 134//76 
f 136//78 65//35 67//34 
f 136//78 137//79 65//35 
f 2//2 1//1 138//80 
f 3//3 139//81 1//1 
f 47//24 55//30 77//43 
f 140//81 141//82 142//83 
f 122//67 75//41 38//15 
f 6//1 56//31 19//10 
f 38//15 143//83 41//19 
f 61//28 143//83 38//15 
f 96//51 144//84 145//85 
f 146//86 79//45 85//49 
f 85//49 147//87 146//86 
f 89//51 148//84 149//87 
f 55//30 111//63 77//43 
f 16//7 123//69 40//19 
f 40//19 150//88 16//7 
f 16//7 151//89 133//75 
f 152//90 113//61 153//91 
f 154//92 155//88 24//10 
f 141//82 92//53 95//51 
f 156//93 119//66 157//94 
f 158//94 159//95 156//93 
f 156//93 157//94 158//94 
f 160//73 161//94 162//96 
f 15//6 162//96 161//94 
f 163//94 155//88 154//92 
f 163//94 93//51 155//88 
f 164//97 125//71 127//73 
f 165//98 12//4 151//89 
f 166//99 21//11 54//29 
f 92//53 167//100 101//57 
f 22//12 20//10 168//101 
f 168//101 52//27 22//12 
f 161//94 52//27 169//102 
f 78//44 81//43 74//40 
f 170//103 75//41 171//104 
f 75//41 172//105 171//104 
f 173//106 100//56 170//103 
f 60//29 138//80 174//107 
f 60//29 174//107 175//108 
f 138//80 60//29 31//13 
f 48//25 176//107 49//23 
f 48//25 47//24 76//42 
f 76//42 176//107 48//25 
f 177//109 178//110 176//107 
f 176//107 113//61 152//90 
f 152//90 177//109 176//107 
f 104//55 178//110 177//109 
f 177//109 152//90 104//55 
f 101//57 167//100 164//97 
f 45//22 164//97 127//73 
f 179//111 172//105 124//70 
f 84//48 124//70 122//67 
f 140//81 126//72 180//112 
f 140//81 180//112 164//97 
f 11//7 13//3 43//20 
f 36//17 67//34 82//46 
f 46//23 25//9 24//10 
f 181//113 56//31 57//31 
f 144//84 148//84 145//85 
f 145//85 182//9 183//114 
f 2//2 145//85 184//115 
f 3//3 185//116 186//117 
f 3//3 186//117 139//81 
f 3//3 184//115 187//76 
f 187//76 188//117 3//3 
f 188//117 187//76 90//26 
f 96//51 149//87 144//84 
f 149//87 96//51 98//54 
f 189//118 102//57 104//55 
f 189//118 190//119 105//57 
f 105//57 102//57 189//118 
f 105//57 190//119 191//118 
f 65//35 82//46 67//34 
f 65//35 64//34 82//46 
f 181//113 192//120 193//121 
f 181//113 193//121 194//122 
f 42//19 8//5 195//123 
f 121//68 36//17 35//16 
f 108//61 107//60 160//73 
f 112//64 111//63 196//124 
f 197//124 153//91 112//64 
f 112//64 196//124 197//124 
f 18//9 142//83 23//12 
f 126//72 142//83 18//9 
f 126//72 18//9 100//56 
f 150//88 14//3 16//7 
f 46//23 55//30 47//24 
f 29//10 99//55 30//12 
f 116//61 99//55 114//65 
f 175//108 118//66 60//29 
f 122//67 172//105 75//41 
f 198//125 8//5 10//3 
f 195//123 26//13 42//19 
f 135//77 70//38 134//76 
f 42//19 28//10 22//12 
f 38//15 199//126 62//32 
f 81//43 199//126 38//15 
f 100//56 17//8 85//49 
f 200//127 141//82 95//51 
f 142//83 141//82 200//127 
f 142//83 200//127 24//10 
f 73//38 25//9 6//1 
f 6//1 18//9 73//38 
f 19//10 18//9 6//1 
f 30//12 4//3 31//13 
f 201//128 42//19 22//12 
f 22//12 52//27 37//14 
f 34//16 33//15 202//129 
f 37//14 33//15 201//128 
f 201//128 22//12 37//14 
f 1//1 139//81 203//130 
f 1//1 203//130 204//131 
f 28//10 111//63 55//30 
f 16//7 72//35 123//69 
f 134//76 72//35 16//7 
f 30//12 56//31 5//4 
f 57//31 56//31 30//12 
f 126//72 173//106 205//132 
f 179//111 124//70 126//72 
f 126//72 205//132 179//111 
f 179//111 171//104 172//105 
f 78//44 170//103 85//49 
f 206//133 190//119 153//91 
f 207//134 58//28 57//31 
f 198//125 206//133 153//91 
f 198//125 132//74 206//133 
f 191//118 132//74 2//2 
f 208//135 108//61 51//25 
f 108//61 208//135 109//62 
f 209//136 96//51 145//85 
f 145//85 183//114 209//136 
f 210//137 96//51 209//136 
f 46//23 49//23 4//3 
f 105//57 4//3 49//23 
f 88//50 148//84 89//51 
f 54//29 53//28 211//138 
f 211//138 166//99 54//29 
f 53//28 93//51 212//139 
f 212//139 211//138 53//28 
f 91//52 166//99 211//138 
f 211//138 212//139 91//52 
f 57//31 99//55 116//61 
f 74//40 170//103 78//44 
f 75//41 170//103 74//40 
f 126//72 140//81 142//83 
f 91//52 92//53 101//57 
f 212//139 93//51 92//53 
f 92//53 91//52 212//139 
f 56//31 181//113 19//10 
f 132//74 10//3 213//140 
f 10//3 132//74 198//125 
f 132//74 213//140 131//70 
f 173//106 126//72 100//56 
f 35//16 160//73 107//60 
f 107//60 121//68 35//16 
f 161//94 35//16 52//27 
f 40//19 123//69 122//67 
f 40//19 122//67 38//15 
f 180//112 126//72 125//71 
f 164//97 180//112 125//71 
f 167//100 141//82 140//81 
f 140//81 164//97 167//100 
f 141//82 167//100 92//53 
f 112//64 153//91 113//61 
f 86//49 128//73 64//34 
f 86//49 130//74 128//73 
f 96//51 210//137 97//53 
f 97//53 214//141 215//142 
f 97//53 215//142 98//54 
f 11//7 43//20 135//77 
f 113//61 77//43 110//60 
f 77//43 111//63 110//60 
f 54//29 28//10 55//30 
f 24//10 155//88 46//23 
f 164//97 44//21 101//57 
f 45//22 44//21 164//97 
f 33//15 32//14 201//128 
f 42//19 201//128 32//14 
f 21//11 166//99 91//52 
f 184//115 3//3 2//2 
f 46//23 155//88 55//30 
f 61//28 62//32 216//143 
f 216//143 217//144 61//28 
f 218//145 143//83 217//144 
f 41//19 143//83 218//145 
f 219//146 181//113 194//122 
f 149//87 148//84 144//84 
f 71//39 123//69 72//35 
f 155//88 93//51 53//28 
f 155//88 53//28 55//30 
f 91//52 101//57 43//20 
f 91//52 43//20 13//3 
f 95//51 94//50 220//147 
f 220//147 154//92 95//51 
f 94//50 93//51 163//94 
f 163//94 220//147 94//50 
f 220//147 163//94 154//92 
f 154//92 200//127 95//51 
f 24//10 200//127 154//92 
f 84//48 127//73 124//70 
f 127//73 84//48 83//47 
f 128//73 9//6 8//5 
f 176//107 76//42 113//61 
f 77//43 113//61 76//42 
f 27//11 198//125 153//91 
f 51//25 162//96 15//6 
f 51//25 108//61 162//96 
f 108//61 160//73 162//96 
f 88//50 90//26 187//76 
f 88//50 187//76 184//115 
f 31//13 2//2 138//80 
f 28//10 54//29 21//11 
f 2//2 105//57 191//118 
f 2//2 4//3 105//57 
f 179//111 205//132 221//148 
f 205//132 173//106 171//104 
f 171//104 221//148 205//132 
f 171//104 179//111 221//148 
f 171//104 173//106 170//103 
f 188//117 90//26 222//149 
f 185//116 3//3 188//117 
f 188//117 222//149 185//116 
f 28//10 21//11 22//12 
f 204//131 138//80 1//1 
f 217//144 143//83 61//28 
f 197//124 27//11 153//91 
f 197//124 28//10 27//11 
f 196//124 111//63 28//10 
f 28//10 197//124 196//124 
f 190//119 152//90 153//91 
f 43//20 70//38 135//77 
f 83//47 70//38 43//20 
f 57//31 116//61 207//134 
f 2//2 182//9 145//85 
f 2//2 131//70 182//9 
f 83//47 45//22 127//73 
f 98//54 89//51 149//87 
f 74//40 81//43 38//15 
f 103//58 178//110 104//55 
f 176//107 178//110 103//58 
f 103//58 49//23 176//107 
f 172//105 122//67 124//70 
f 34//16 202//129 64//34 
f 128//73 34//16 64//34 
f 27//11 26//13 195//123 
f 195//123 198//125 27//11 
f 198//125 195//123 8//5 
f 191//118 206//133 132//74 
f 190//119 206//133 191//118 
f 156//93 223//150 119//66 
f 117//61 119//66 223//150 
f 170//103 100//56 85//49 
f 13//3 224//151 20//10 
f 13//3 12//4 165//98 
f 165//98 224//151 13//3 
f 20//10 224//151 225//152 
f 225//152 168//101 20//10 
f 224//151 165//98 169//102 
f 169//102 225//152 224//151 
f 52//27 168//101 225//152 
f 225//152 169//102 52//27 
f 63//33 65//35 137//79 
f 145//85 148//84 184//115 
f 148//84 88//50 184//115 
f 226//153 114//65 118//66 
f 119//66 114//65 226//153 
f 120//67 227//154 68//36 
f 120//67 121//68 106//59 
f 106//59 227//154 120//67 
f 142//83 24//10 23//12 
f 99//55 29//10 114//65 
f 219//146 147//87 85//49 
f 161//94 160//73 35//16 
f 121//68 228//155 36//17 
f 120//67 228//155 121//68 
f 67//34 228//155 120//67 
f 36//17 228//155 67//34 
f 34//16 128//73 8//5 
f 4//3 30//12 5//4 
f 152//90 190//119 189//118 
f 152//90 189//118 104//55 
f 67//34 69//37 229//156 
f 229//156 136//78 67//34 
f 136//78 229//156 137//79 
f 202//129 82//46 64//34 
f 33//15 82//46 202//129 
f 151//89 15//6 161//94 
f 16//7 15//6 151//89 
f 151//89 169//102 165//98 
f 161//94 169//102 151//89 
f 17//8 19//10 181//113 
f 219//146 17//8 181//113 
f 219//146 85//49 17//8 
f 134//76 70//38 72//35 
f 84//48 71//39 70//38 
f 11//7 133//75 12//4 
f 133//75 151//89 12//4 
f 192//120 57//31 59//27 
f 192//120 181//113 57//31 
f 37//14 36//17 33//15 
# 383 faces

