# 3ds Max Wavefront OBJ Exporter v0.97b - (c)2007 guruware
# File Created: 09.04.2019 17:50:49

mtllib marsrock2.mtl

#
# object Cube_007_Cube_008
#

v  0.3147 0.7465 -0.0200
v  0.0258 0.7495 -0.2552
v  -0.2127 0.7709 -0.0817
v  -0.6603 -0.2831 0.4190
v  -0.6104 -0.5364 0.4926
v  -0.5710 -0.3340 0.6301
v  -0.3250 -0.0335 -0.6300
v  -0.5049 0.1448 -0.4901
v  -0.3223 0.2345 -0.7044
v  0.5548 0.0931 -0.5627
v  0.5894 -0.1159 -0.4421
v  0.4187 -0.3109 -0.5593
v  0.3188 0.7408 -0.2135
v  0.4711 0.6766 0.0272
v  -0.5470 -0.5654 0.7374
v  -0.2759 -1.1441 0.4489
v  0.5708 -0.2529 0.2005
v  0.4675 -0.5860 0.0056
v  0.2645 -0.7769 0.0766
v  0.3714 -0.5594 -0.2739
v  -0.6172 -0.5134 0.0195
v  -0.7487 -0.0662 0.3456
v  -0.7041 0.6339 0.4989
v  -0.7244 0.3351 0.4626
v  -0.4568 0.4564 0.6281
v  -0.3740 0.3303 -0.5950
v  -0.4343 0.5680 -0.4191
v  0.0481 0.5524 0.5400
v  -0.1382 0.6609 0.3494
v  -0.3109 0.3285 0.6706
v  -0.1381 0.0701 0.6898
v  -0.3151 -0.0377 0.7390
v  -0.5505 -0.3834 -0.3343
v  -0.6785 -0.1600 -0.1864
v  0.1313 -0.7122 -0.1817
v  -0.0029 -0.6341 -0.4096
v  0.3524 -0.5470 -0.4206
v  0.1412 0.6789 0.1948
v  0.4793 0.4588 0.2641
v  0.7014 0.0132 -0.2741
v  0.8203 -0.0195 -0.0165
v  0.5489 -0.3596 -0.3200
v  0.0865 0.6499 0.4150
v  -0.2722 0.7035 0.1180
v  -0.6510 0.4855 0.0084
v  -0.7889 0.2406 0.1550
v  -0.7358 0.4562 0.3367
v  -0.5280 -0.5815 -0.0815
v  -0.0526 -0.8541 0.0618
v  -0.5744 -0.7467 0.2623
v  -0.5040 -1.0615 0.5955
v  0.1570 0.1979 -0.8499
v  0.3576 0.0467 -0.7637
v  0.1058 -0.1576 -0.8089
v  0.1779 0.6029 -0.5228
v  -0.0093 0.3490 -0.7477
v  -0.1812 0.5083 -0.5696
v  0.0488 -0.3942 -0.6821
v  -0.8092 0.2038 -0.1519
v  -0.8361 0.1447 0.0383
v  0.6755 0.2542 -0.2797
v  0.6636 0.3027 0.1225
v  0.4208 0.2646 0.4237
v  0.4972 0.5743 -0.3782
v  0.3830 0.3092 -0.7197
v  0.3239 0.6754 -0.3973
v  -0.4784 -0.0204 0.6655
v  -0.5064 0.1408 0.6258
v  -0.7363 0.1356 0.4131
v  -0.3387 0.1760 0.6836
v  -0.0656 -0.7242 -0.2423
v  -0.3183 -0.5520 -0.5255
v  -0.4728 -0.5973 -0.3018
v  -0.1525 0.7835 -0.2813
v  -0.5300 0.6526 0.1961
v  -0.4456 0.6560 0.0480
v  -0.8703 -0.0094 0.0880
v  0.5519 0.2304 -0.5001
v  0.6477 0.5130 -0.1358
v  0.2849 0.4216 0.5497
v  -0.0687 -0.3700 -0.7377
v  -0.1926 0.1619 -0.7402
v  -0.1578 -0.4720 -0.7063
v  -0.2838 -0.4279 -0.6537
v  -0.0121 0.1944 -0.8203
v  -0.6055 0.6858 0.4469
v  -0.3856 -1.0102 0.3395
v  -0.4184 -1.1310 0.5392
v  -0.6132 -0.6926 0.6127
v  -0.0352 -1.0287 0.3440
v  0.6506 -0.3090 0.1120
v  0.7444 -0.0423 0.1597
v  -0.4319 -0.1946 -0.4994
v  -0.6421 -0.0020 -0.3809
v  -0.7756 -0.0303 -0.2457
v  -0.9268 0.0240 -0.1169
v  -0.6779 0.1403 -0.3841
v  -0.6175 0.4105 -0.1923
v  -0.3503 0.7215 -0.1528
v  0.1666 -0.8981 0.2426
v  0.5900 0.1141 0.2820
v  0.5778 0.7314 -0.1916
v  -0.3753 -0.2471 0.7443
v  -0.2845 -0.6862 -0.2743
v  0.0428 0.2233 0.6245
v  0.1563 0.4129 0.6178
v  -0.2794 0.7805 -0.2906
v  0.3803 -0.4483 -0.5414
v  -0.4350 0.6962 0.3493
v  -0.6022 -0.8334 0.6964
v  0.4093 0.1852 -0.7639
v  0.2867 -0.8023 0.2077
v  0.4492 -0.4726 0.2076
v  -0.2045 -0.6683 -0.5017
v  -0.2794 -0.5948 -0.6522
# 115 vertices

vn 0.0621 0.9968 0.0504
vn -0.8579 0.0603 0.5103
vn -0.6044 0.0166 -0.7965
vn 0.8711 -0.1163 -0.4771
vn 0.6481 -0.2848 -0.7064
vn 0.3429 0.9317 0.1198
vn 0.2464 -0.4223 0.8724
vn 0.6206 -0.7550 -0.2117
vn -0.9452 -0.3176 0.0761
vn -0.6022 0.3053 0.7376
vn -0.6289 0.4785 -0.6128
vn 0.0270 0.6553 0.7549
vn 0.1762 0.0117 0.9843
vn -0.8330 -0.3963 -0.3860
vn 0.3603 -0.8318 -0.4221
vn 0.4295 0.7654 0.4792
vn 0.9267 -0.2310 -0.2964
vn 0.0498 0.9574 0.2846
vn -0.8952 0.4388 -0.0776
vn -0.5296 -0.7568 -0.3830
vn -0.5312 -0.6666 0.5230
vn 0.2659 -0.0915 -0.9596
vn -0.0841 0.6539 -0.7519
vn 0.2688 -0.6143 -0.7419
vn -0.8955 0.4304 -0.1129
vn 0.9533 0.3015 0.0156
vn 0.6321 0.0938 0.7692
vn 0.4722 0.6270 -0.6196
vn -0.6637 0.0454 0.7466
vn -0.1433 0.1716 0.9747
vn -0.0040 -0.9497 -0.3132
vn -0.7227 -0.5958 -0.3503
vn 0.0676 0.9554 -0.2875
vn -0.4834 0.8598 -0.1644
vn -0.9082 -0.3572 0.2180
vn 0.8574 0.2122 -0.4688
vn 0.9445 0.3282 -0.0123
vn 0.6919 0.3616 0.6249
vn -0.2286 -0.2401 -0.9435
vn -0.3577 -0.2392 -0.9027
vn -0.2679 0.1334 -0.9542
vn -0.2966 0.9292 0.2204
vn -0.4639 -0.8075 -0.3643
vn -0.9958 -0.0550 0.0735
vn 0.4550 -0.7258 0.5159
vn 0.8020 -0.4890 0.3430
vn 0.7898 -0.1002 0.6052
vn -0.6953 -0.1580 -0.7012
vn -0.8142 -0.2513 -0.5235
vn -0.7795 0.3626 -0.5107
vn -0.5956 0.8032 0.0150
vn 0.5750 -0.7889 0.2167
vn 0.7366 0.2421 0.6315
vn 0.6210 0.7708 -0.1421
vn 0.0206 -0.0548 0.9983
vn -0.3015 -0.9526 -0.0414
vn 0.3103 -0.0198 0.9504
vn 0.1899 0.2285 0.9548
vn -0.3378 0.8881 -0.3116
vn 0.5245 -0.5838 -0.6197
vn -0.0184 0.9970 0.0753
vn -0.6349 -0.4126 0.6532
vn 0.5822 0.1355 -0.8017
vn 0.6540 -0.4871 0.5789
vn -0.1081 -0.9064 -0.4083
vn -0.4434 -0.6169 -0.6502
# 66 vertex normals

o Cube_007_Cube_008
g Cube_007_Cube_008
usemtl Rock_007
s off
f 1//1 2//1 3//1 
f 4//2 5//2 6//2 
f 7//3 8//3 9//3 
f 10//4 11//4 12//5 
f 13//6 1//1 14//6 
f 15//7 16//7 17//7 
f 18//8 19//8 20//8 
f 21//9 5//2 22//9 
f 23//10 24//10 25//10 
f 26//11 8//3 27//11 
f 28//12 29//12 30//12 
f 17//7 31//13 32//13 
f 33//14 21//9 34//14 
f 35//15 36//15 37//15 
f 14//6 38//16 39//16 
f 40//17 41//17 42//17 
f 43//18 44//18 29//12 
f 45//19 46//19 47//19 
f 48//20 49//20 50//20 
f 16//7 15//7 51//21 
f 52//22 53//22 54//22 
f 55//23 56//23 57//23 
f 53//22 12//5 54//22 
f 37//15 36//15 58//24 
f 45//19 59//25 60//25 
f 21//9 22//9 34//14 
f 41//17 61//26 62//26 
f 31//13 17//7 63//27 
f 64//28 65//28 66//28 
f 55//23 65//28 56//23 
f 67//29 68//29 69//29 
f 70//30 32//13 31//13 
f 71//31 49//20 48//20 
f 72//32 73//32 33//14 
f 55//23 57//23 74//33 
f 45//19 75//34 76//34 
f 47//19 46//19 24//10 
f 77//35 34//14 22//9 
f 78//36 64//28 61//26 
f 62//26 61//26 79//37 
f 80//38 63//27 43//18 
f 28//12 43//18 29//12 
f 81//39 7//3 82//39 
f 81//39 83//40 84//40 
f 85//41 54//22 82//39 
f 56//23 9//3 57//23 
f 86//42 25//10 29//12 
f 45//19 47//19 75//34 
f 87//43 16//7 88//43 
f 15//7 5//2 89//44 
f 90//45 87//43 49//20 
f 20//8 19//8 35//15 
f 91//46 42//17 41//17 
f 63//27 17//7 92//47 
f 8//3 93//48 94//48 
f 59//25 95//49 96//49 
f 44//18 76//34 75//34 
f 3//1 2//1 74//33 
f 27//11 97//50 98//50 
f 98//50 99//51 27//11 
f 49//20 100//52 90//45 
f 17//7 16//7 100//52 
f 39//16 43//18 63//27 
f 92//47 62//26 101//53 
f 62//26 79//37 14//6 
f 13//6 14//6 102//54 
f 67//29 4//2 6//2 
f 17//7 103//55 15//7 
f 83//40 58//24 36//15 
f 72//32 104//56 73//32 
f 105//57 63//27 106//58 
f 30//12 105//57 28//12 
f 74//33 2//1 55//23 
f 64//28 66//28 13//6 
f 96//49 34//14 77//35 
f 60//25 59//25 96//49 
f 77//35 22//9 69//29 
f 69//29 4//2 67//29 
f 33//14 84//40 72//32 
f 7//3 93//48 8//3 
f 27//11 99//51 107//59 
f 99//51 3//1 107//59 
f 58//24 108//60 37//15 
f 108//60 11//4 42//17 
f 81//39 82//39 54//22 
f 58//24 54//22 108//60 
f 78//36 65//28 64//28 
f 53//22 10//4 12//5 
f 17//7 91//46 92//47 
f 18//8 42//17 91//46 
f 86//42 29//12 109//61 
f 44//18 109//61 29//12 
f 15//7 110//62 51//21 
f 110//62 87//43 51//21 
f 27//11 8//3 97//50 
f 97//50 8//3 94//48 
f 34//14 94//48 33//14 
f 96//49 95//49 34//14 
f 25//10 24//10 68//29 
f 30//12 29//12 25//10 
f 47//19 24//10 23//10 
f 86//42 75//34 47//19 
f 61//26 64//28 79//37 
f 64//28 13//6 102//54 
f 41//17 40//17 61//26 
f 61//26 11//4 78//36 
f 39//16 38//16 43//18 
f 38//16 44//18 43//18 
f 56//23 85//41 9//3 
f 52//22 56//23 111//63 
f 100//52 112//64 113//64 
f 100//52 49//20 19//8 
f 50//20 49//20 87//43 
f 50//20 87//43 89//44 
f 84//40 7//3 81//39 
f 84//40 93//48 7//3 
f 101//53 63//27 92//47 
f 63//27 101//53 39//16 
f 27//11 107//59 57//23 
f 57//23 26//11 27//11 
f 35//15 71//31 36//15 
f 72//32 114//65 104//56 
f 50//20 21//9 48//20 
f 33//14 48//20 21//9 
f 67//29 6//2 103//55 
f 70//30 67//29 32//13 
f 20//8 108//60 42//17 
f 20//8 42//17 18//8 
f 65//28 111//63 56//23 
f 65//28 78//36 111//63 
f 69//29 46//19 77//35 
f 96//49 77//35 60//25 
f 92//47 91//46 41//17 
f 92//47 41//17 62//26 
f 49//20 35//15 19//8 
f 49//20 71//31 35//15 
f 15//7 103//55 6//2 
f 15//7 6//2 5//2 
f 82//39 9//3 85//41 
f 7//3 9//3 82//39 
f 3//1 44//18 1//1 
f 44//18 3//1 99//51 
f 18//8 91//46 113//64 
f 113//64 112//64 18//8 
f 59//25 97//50 94//48 
f 97//50 59//25 98//50 
f 33//14 93//48 84//40 
f 33//14 94//48 93//48 
f 30//12 25//10 68//29 
f 30//12 70//30 105//57 
f 115//66 84//40 83//40 
f 83//40 114//65 115//66 
f 106//58 28//12 105//57 
f 43//18 28//12 106//58 
f 22//9 5//2 4//2 
f 69//29 22//9 4//2 
f 39//16 101//53 62//26 
f 62//26 14//6 39//16 
f 99//51 76//34 44//18 
f 76//34 99//51 98//50 
f 14//6 1//1 38//16 
f 1//1 44//18 38//16 
f 86//42 47//19 23//10 
f 23//10 25//10 86//42 
f 90//45 100//52 16//7 
f 90//45 16//7 87//43 
f 13//6 2//1 1//1 
f 13//6 66//28 2//1 
f 102//54 14//6 79//37 
f 79//37 64//28 102//54 
f 40//17 42//17 11//4 
f 40//17 11//4 61//26 
f 33//14 73//32 48//20 
f 104//56 48//20 73//32 
f 77//35 46//19 60//25 
f 60//25 46//19 45//19 
f 55//23 2//1 66//28 
f 55//23 66//28 65//28 
f 52//22 54//22 85//41 
f 52//22 85//41 56//23 
f 74//33 57//23 107//59 
f 74//33 107//59 3//1 
f 57//23 9//3 26//11 
f 9//3 8//3 26//11 
f 50//20 5//2 21//9 
f 50//20 89//44 5//2 
f 113//64 17//7 100//52 
f 113//64 91//46 17//7 
f 44//18 75//34 109//61 
f 86//42 109//61 75//34 
f 58//24 81//39 54//22 
f 58//24 83//40 81//39 
f 69//29 24//10 46//19 
f 69//29 68//29 24//10 
f 45//19 98//50 59//25 
f 76//34 98//50 45//19 
f 105//57 70//30 31//13 
f 105//57 31//13 63//27 
f 70//30 68//29 67//29 
f 30//12 68//29 70//30 
f 53//22 111//63 10//4 
f 52//22 111//63 53//22 
f 72//32 84//40 115//66 
f 72//32 115//66 114//65 
f 12//5 108//60 54//22 
f 12//5 11//4 108//60 
f 18//8 112//64 19//8 
f 19//8 112//64 100//52 
f 89//44 110//62 15//7 
f 89//44 87//43 110//62 
f 59//25 94//48 95//49 
f 95//49 94//48 34//14 
f 35//15 37//15 20//8 
f 20//8 37//15 108//60 
f 51//21 87//43 88//43 
f 16//7 51//21 88//43 
f 106//58 63//27 80//38 
f 43//18 106//58 80//38 
f 32//13 103//55 17//7 
f 103//55 32//13 67//29 
f 36//15 114//65 83//40 
f 36//15 71//31 114//65 
f 104//56 71//31 48//20 
f 104//56 114//65 71//31 
f 78//36 11//4 10//4 
f 10//4 111//63 78//36 
# 226 faces

