# Blender v2.79 (sub 0) OBJ File: ''
# www.blender.org
mtllib marsrock.mtl
o Cube_007_Cube_008
v 0.314700 0.746500 -0.020000
v 0.025800 0.749500 -0.255200
v -0.212700 0.770900 -0.081700
v -0.660300 -0.283100 0.419000
v -0.610400 -0.536400 0.492600
v -0.571000 -0.334000 0.630100
v -0.325000 -0.033500 -0.630000
v -0.504900 0.144800 -0.490100
v -0.322300 0.234500 -0.704400
v 0.554800 0.093100 -0.562700
v 0.589400 -0.115900 -0.442100
v 0.418700 -0.310900 -0.559300
v 0.318800 0.740800 -0.213500
v 0.471100 0.676600 0.027200
v -0.547000 -0.565400 0.737400
v -0.275900 -1.144100 0.448900
v 0.570800 -0.252900 0.200500
v 0.467500 -0.586000 0.005600
v 0.264500 -0.776900 0.076600
v 0.371400 -0.559400 -0.273900
v -0.617200 -0.513400 0.019500
v -0.748700 -0.066200 0.345600
v -0.704100 0.633900 0.498900
v -0.724400 0.335100 0.462600
v -0.456800 0.456400 0.628100
v -0.374000 0.330300 -0.595000
v -0.434300 0.568000 -0.419100
v 0.048100 0.552400 0.540000
v -0.138200 0.660900 0.349400
v -0.310900 0.328500 0.670600
v -0.138100 0.070100 0.689800
v -0.315100 -0.037700 0.739000
v -0.550500 -0.383400 -0.334300
v -0.678500 -0.160000 -0.186400
v 0.131300 -0.712200 -0.181700
v -0.002900 -0.634100 -0.409600
v 0.352400 -0.547000 -0.420600
v 0.141200 0.678900 0.194800
v 0.479300 0.458800 0.264100
v 0.701400 0.013200 -0.274100
v 0.820300 -0.019500 -0.016500
v 0.548900 -0.359600 -0.320000
v 0.086500 0.649900 0.415000
v -0.272200 0.703500 0.118000
v -0.651000 0.485500 0.008400
v -0.788900 0.240600 0.155000
v -0.735800 0.456200 0.336700
v -0.528000 -0.581500 -0.081500
v -0.052600 -0.854100 0.061800
v -0.574400 -0.746700 0.262300
v -0.504000 -1.061500 0.595500
v 0.157000 0.197900 -0.849900
v 0.357600 0.046700 -0.763700
v 0.105800 -0.157600 -0.808900
v 0.177900 0.602900 -0.522800
v -0.009300 0.349000 -0.747700
v -0.181200 0.508300 -0.569600
v 0.048800 -0.394200 -0.682100
v -0.809200 0.203800 -0.151900
v -0.836100 0.144700 0.038300
v 0.675500 0.254200 -0.279700
v 0.663600 0.302700 0.122500
v 0.420800 0.264600 0.423700
v 0.497200 0.574300 -0.378200
v 0.383000 0.309200 -0.719700
v 0.323900 0.675400 -0.397300
v -0.478400 -0.020400 0.665500
v -0.506400 0.140800 0.625800
v -0.736300 0.135600 0.413100
v -0.338700 0.176000 0.683600
v -0.065600 -0.724200 -0.242300
v -0.318300 -0.552000 -0.525500
v -0.472800 -0.597300 -0.301800
v -0.152500 0.783500 -0.281300
v -0.530000 0.652600 0.196100
v -0.445600 0.656000 0.048000
v -0.870300 -0.009400 0.088000
v 0.551900 0.230400 -0.500100
v 0.647700 0.513000 -0.135800
v 0.284900 0.421600 0.549700
v -0.068700 -0.370000 -0.737700
v -0.192600 0.161900 -0.740200
v -0.157800 -0.472000 -0.706300
v -0.283800 -0.427900 -0.653700
v -0.012100 0.194400 -0.820300
v -0.605500 0.685800 0.446900
v -0.385600 -1.010200 0.339500
v -0.418400 -1.131000 0.539200
v -0.613200 -0.692600 0.612700
v -0.035200 -1.028700 0.344000
v 0.650600 -0.309000 0.112000
v 0.744400 -0.042300 0.159700
v -0.431900 -0.194600 -0.499400
v -0.642100 -0.002000 -0.380900
v -0.775600 -0.030300 -0.245700
v -0.926800 0.024000 -0.116900
v -0.677900 0.140300 -0.384100
v -0.617500 0.410500 -0.192300
v -0.350300 0.721500 -0.152800
v 0.166600 -0.898100 0.242600
v 0.590000 0.114100 0.282000
v 0.577800 0.731400 -0.191600
v -0.375300 -0.247100 0.744300
v -0.284500 -0.686200 -0.274300
v 0.042800 0.223300 0.624500
v 0.156300 0.412900 0.617800
v -0.279400 0.780500 -0.290600
v 0.380300 -0.448300 -0.541400
v -0.435000 0.696200 0.349300
v -0.602200 -0.833400 0.696400
v 0.409300 0.185200 -0.763900
v 0.286700 -0.802300 0.207700
v 0.449200 -0.472600 0.207600
v -0.204500 -0.668300 -0.501700
v -0.279400 -0.594800 -0.652200
vt 0.215797 0.774229
vt 0.129345 0.781432
vt 0.104873 0.715164
vt 0.829773 0.538789
vt 0.865001 0.484589
vt 0.884361 0.540496
vt 0.581336 0.207001
vt 0.513564 0.208945
vt 0.550123 0.152021
vt 0.823505 0.200283
vt 0.853767 0.247318
vt 0.813315 0.286665
vt 0.191804 0.812973
vt 0.253986 0.783420
vt 0.199654 0.436178
vt 0.035460 0.438914
vt 0.102389 0.140100
vt 0.408563 0.708784
vt 0.412069 0.655437
vt 0.471220 0.734709
vt 0.769942 0.467931
vt 0.792412 0.582672
vt 0.785722 0.757095
vt 0.794155 0.683937
vt 0.849635 0.732221
vt 0.516203 0.148679
vt 0.452409 0.124410
vt 0.241072 0.618479
vt 0.177636 0.635250
vt 0.193833 0.534080
vt 0.278128 0.270291
vt 0.279010 0.322116
vt 0.568360 0.323761
vt 0.538467 0.380129
vt 0.500290 0.310251
vt 0.479498 0.671927
vt 0.543017 0.683801
vt 0.499384 0.754192
vt 0.211493 0.705001
vt 0.291560 0.728523
vt 0.899718 0.218125
vt 0.966362 0.224261
vt 0.877248 0.297867
vt 0.229975 0.652585
vt 0.120745 0.664575
vt 0.704254 0.701840
vt 0.732105 0.644556
vt 0.760904 0.706231
vt 0.569204 0.535295
vt 0.455153 0.596449
vt 0.506252 0.469575
vt 0.086903 0.482790
vt 0.639681 0.079681
vt 0.680859 0.084021
vt 0.680859 0.155897
vt 0.545364 0.022032
vt 0.582135 0.082311
vt 0.514023 0.089047
vt 0.761767 0.206006
vt 0.728831 0.240139
vt 0.598942 0.741074
vt 0.671736 0.620820
vt 0.709585 0.614411
vt 0.701462 0.539169
vt 0.894628 0.160192
vt 0.978912 0.134378
vt 0.237079 0.117355
vt 0.854474 0.077581
vt 0.772111 0.144464
vt 0.832982 0.043952
vt 0.640332 0.034266
vt 0.883033 0.620355
vt 0.862440 0.655345
vt 0.795011 0.634002
vt 0.317385 0.293883
vt 0.517527 0.644068
vt 0.647853 0.309128
vt 0.607581 0.354288
vt 0.444542 0.051949
vt 0.038566 0.625394
vt 0.082047 0.611617
vt 0.079261 0.652734
vt 0.693865 0.921315
vt 0.733823 0.858207
vt 0.733823 0.977968
vt 0.835779 0.165758
vt 0.921113 0.092872
vt 0.868943 0.843509
vt 0.896441 0.801159
vt 0.896441 0.918047
vt 0.679871 0.225389
vt 0.583308 0.144338
vt 0.678963 0.259358
vt 0.648659 0.272870
vt 0.612981 0.106878
vt 0.098876 0.552840
vt 0.156833 0.527789
vt 0.065142 0.547376
vt 0.445875 0.487324
vt 0.401484 0.488031
vt 0.408292 0.447509
vt 0.921973 0.491859
vt 0.897606 0.453100
vt 0.392416 0.552083
vt 0.978912 0.277466
vt 0.122411 0.075924
vt 0.575552 0.260856
vt 0.503778 0.263202
vt 0.423673 0.263817
vt 0.473909 0.296521
vt 0.429938 0.316646
vt 0.090524 0.763567
vt 0.477855 0.241745
vt 0.424470 0.194830
vt 0.021088 0.666739
vt 0.070244 0.708372
vt 0.023475 0.743390
vt 0.389606 0.608610
vt 0.021088 0.305952
vt 0.254192 0.067944
vt 0.342880 0.129062
vt 0.193289 0.042551
vt 0.178707 0.094081
vt 0.937753 0.038170
vt 0.245131 0.843754
vt 0.244983 0.361792
vt 0.627365 0.704302
vt 0.614709 0.644310
vt 0.557781 0.608722
vt 0.596641 0.579540
vt 0.284138 0.210433
vt 0.309060 0.163143
vt 0.342880 0.267323
vt 0.339278 0.159099
vt 0.128061 0.849369
vt 0.871284 0.022032
vt 0.671736 0.874939
vt 0.676072 0.574684
vt 0.724691 0.578767
vt 0.323987 0.893432
vt 0.323987 0.969301
vt 0.300953 0.959632
vt 0.064771 0.747888
vt 0.522869 0.780351
vt 0.814184 0.315953
vt 0.629561 0.776642
vt 0.075739 0.125451
vt 0.940026 0.334929
vt 0.119132 0.596027
vt 0.149608 0.479063
vt 0.401393 0.840304
vt 0.428966 0.939977
vt 0.385056 0.903661
vt 0.703598 0.841053
vt 0.576580 0.854379
vt 0.615270 0.824414
vt 0.615270 0.901642
vt 0.126830 0.893432
vt 0.126830 0.965307
vt 0.096483 0.925657
vt 0.723034 0.161246
vt 0.727788 0.112177
vt 0.765957 0.176667
vt 0.024714 0.267659
vt 0.072489 0.192959
vt 0.826767 0.801159
vt 0.826767 0.937216
vt 0.775999 0.839417
vt 0.471141 0.851717
vt 0.528160 0.824414
vt 0.528160 0.903650
vt 0.428112 0.070429
vt 0.585310 0.659466
vt 0.570569 0.504329
vt 0.629561 0.574649
vt 0.923701 0.575066
vt 0.890630 0.673849
vt 0.916946 0.626984
vt 0.467970 0.779591
vt 0.667524 0.050697
vt 0.103296 0.044672
vt 0.030346 0.188731
vt 0.882104 0.710518
vt 0.674008 0.303377
vt 0.626900 0.670365
vt 0.237303 0.932151
vt 0.258777 0.893432
vt 0.258777 0.976354
vt 0.275593 0.612113
vt 0.275221 0.022032
vt 0.570335 0.883760
vt 0.087740 0.526853
vt 0.024766 0.369607
vt 0.170751 0.847465
vt 0.021088 0.928396
vt 0.054308 0.893432
vt 0.054308 0.964255
vt 0.901177 0.039272
vt 0.195127 0.968534
vt 0.169005 0.921833
vt 0.195127 0.893432
vt 0.792460 0.056345
vt 0.836403 0.425928
vt 0.627239 0.728151
vt 0.385937 0.198497
vt 0.385056 0.139323
vt 0.385056 0.638694
vt 0.923701 0.424192
vt 0.428966 0.824414
vt 0.727403 0.801159
vt 0.948323 0.862709
vt 0.938617 0.829544
vt 0.948323 0.801159
vt 0.416685 0.424192
vt 0.060062 0.471338
vt 0.292039 0.132205
vt 0.291560 0.643627
vn 0.0621 0.9968 0.0504
vn -0.8579 0.0603 0.5103
vn -0.6044 0.0166 -0.7965
vn 0.8711 -0.1163 -0.4771
vn 0.6481 -0.2848 -0.7063
vn 0.3429 0.9317 0.1198
vn 0.2464 -0.4223 0.8723
vn 0.2464 -0.4222 0.8724
vn 0.6206 -0.7550 -0.2117
vn -0.9452 -0.3176 0.0761
vn -0.6022 0.3053 0.7376
vn -0.6289 0.4785 -0.6128
vn 0.0270 0.6553 0.7549
vn 0.1762 0.0117 0.9843
vn -0.8330 -0.3963 -0.3860
vn 0.3603 -0.8318 -0.4221
vn 0.3603 -0.8319 -0.4221
vn 0.4295 0.7654 0.4792
vn 0.9267 -0.2310 -0.2964
vn 0.0498 0.9574 0.2846
vn 0.0498 0.9573 0.2846
vn -0.8952 0.4388 -0.0776
vn -0.5296 -0.7568 -0.3830
vn -0.5315 -0.6666 0.5227
vn 0.2659 -0.0915 -0.9596
vn -0.0841 0.6539 -0.7519
vn 0.2688 -0.6143 -0.7419
vn -0.8955 0.4304 -0.1129
vn 0.9533 0.3015 0.0156
vn 0.6321 0.0938 0.7692
vn 0.4722 0.6270 -0.6196
vn -0.6637 0.0454 0.7466
vn -0.1433 0.1715 0.9747
vn -0.0039 -0.9497 -0.3131
vn -0.7227 -0.5958 -0.3503
vn 0.0676 0.9554 -0.2874
vn -0.4834 0.8598 -0.1644
vn -0.9082 -0.3573 0.2180
vn 0.8574 0.2122 -0.4688
vn 0.9446 0.3281 -0.0124
vn 0.6920 0.3615 0.6248
vn -0.2286 -0.2401 -0.9435
vn -0.3577 -0.2392 -0.9027
vn -0.2679 0.1334 -0.9542
vn -0.2966 0.9292 0.2205
vn -0.4639 -0.8075 -0.3643
vn -0.9958 -0.0551 0.0733
vn 0.4550 -0.7258 0.5159
vn 0.8020 -0.4891 0.3429
vn 0.7899 -0.1001 0.6050
vn -0.6953 -0.1580 -0.7012
vn -0.8142 -0.2509 -0.5236
vn -0.8141 -0.2513 -0.5235
vn -0.7795 0.3626 -0.5107
vn -0.5955 0.8032 0.0151
vn 0.5750 -0.7889 0.2167
vn 0.7366 0.2421 0.6315
vn 0.6210 0.7708 -0.1421
vn 0.0206 -0.0546 0.9983
vn -0.3016 -0.9525 -0.0415
vn 0.3103 -0.0196 0.9504
vn 0.1899 0.2286 0.9548
vn -0.3379 0.8881 -0.3116
vn 0.5245 -0.5838 -0.6198
vn -0.0182 0.9970 0.0751
vn -0.6349 -0.4127 0.6532
vn 0.5822 0.1355 -0.8016
vn 0.6540 -0.4871 0.5788
vn 0.6540 -0.4871 0.5789
vn -0.1082 -0.9064 -0.4083
vn -0.4438 -0.6168 -0.6501
usemtl Rock_007
s 1
f 1/1/1 2/2/1 3/3/1
f 4/4/2 5/5/2 6/6/2
f 7/7/3 8/8/3 9/9/3
f 10/10/4 11/11/4 12/12/5
f 13/13/6 1/1/1 14/14/6
f 15/15/7 16/16/7 17/17/8
f 18/18/9 19/19/9 20/20/9
f 21/21/10 5/5/2 22/22/10
f 23/23/11 24/24/11 25/25/11
f 26/26/12 8/8/3 27/27/12
f 28/28/13 29/29/13 30/30/13
f 17/17/8 31/31/14 32/32/14
f 33/33/15 21/34/10 34/35/15
f 35/36/16 36/37/17 37/38/17
f 14/14/6 38/39/18 39/40/18
f 40/41/19 41/42/19 42/43/19
f 43/44/20 44/45/21 29/29/13
f 45/46/22 46/47/22 47/48/22
f 48/49/23 49/50/23 50/51/23
f 16/16/7 15/15/7 51/52/24
f 52/53/25 53/54/25 54/55/25
f 55/56/26 56/57/26 57/58/26
f 53/59/25 12/12/5 54/60/25
f 37/38/17 36/37/17 58/61/27
f 45/46/22 59/62/28 60/63/28
f 21/21/10 22/22/10 34/64/15
f 41/42/19 61/65/29 62/66/29
f 31/31/14 17/17/8 63/67/30
f 64/68/31 65/69/31 66/70/31
f 55/56/26 65/71/31 56/57/26
f 67/72/32 68/73/32 69/74/32
f 70/75/33 32/32/14 31/31/14
f 71/76/34 49/50/23 48/49/23
f 72/77/35 73/78/35 33/33/15
f 55/56/26 57/58/26 74/79/36
f 45/80/22 75/81/37 76/82/37
f 47/48/22 46/47/22 24/24/11
f 77/83/38 34/84/15 22/85/10
f 78/86/39 64/68/31 61/65/29
f 62/66/29 61/65/29 79/87/40
f 80/88/41 63/89/30 43/90/20
f 28/28/13 43/44/20 29/29/13
f 81/91/42 7/7/3 82/92/42
f 81/91/42 83/93/43 84/94/43
f 85/95/44 54/55/25 82/92/42
f 56/57/26 9/9/3 57/58/26
f 86/96/45 25/97/11 29/29/13
f 45/80/22 47/98/22 75/81/37
f 87/99/46 16/100/7 88/101/46
f 15/102/7 5/5/2 89/103/47
f 90/104/48 87/99/46 49/50/23
f 20/20/9 19/19/9 35/36/16
f 91/105/49 42/43/19 41/42/19
f 63/67/30 17/17/8 92/106/50
f 8/8/3 93/107/51 94/108/51
f 59/109/28 95/110/52 96/111/53
f 44/45/21 76/82/37 75/81/37
f 3/3/1 2/2/1 74/112/36
f 27/27/12 97/113/54 98/114/54
f 98/115/54 99/116/55 27/117/12
f 49/50/23 100/118/56 90/104/48
f 17/17/8 16/16/7 100/119/56
f 39/120/18 43/121/20 63/67/30
f 92/106/50 62/122/29 101/123/57
f 62/66/29 79/87/40 14/124/6
f 13/13/6 14/14/6 102/125/58
f 67/72/32 4/4/2 6/6/2
f 17/17/8 103/126/59 15/15/7
f 83/127/43 58/61/27 36/37/17
f 72/128/35 104/129/60 73/130/35
f 105/131/61 63/67/30 106/132/62
f 30/133/13 105/131/61 28/134/13
f 74/112/36 2/2/1 55/135/26
f 64/68/31 66/70/31 13/136/6
f 96/137/53 34/84/15 77/83/38
f 60/63/28 59/62/28 96/138/53
f 77/139/38 22/22/10 69/74/32
f 69/74/32 4/4/2 67/72/32
f 33/33/15 84/94/43 72/77/35
f 7/7/3 93/107/51 8/8/3
f 27/140/12 99/141/55 107/142/63
f 99/116/55 3/3/1 107/143/63
f 58/61/27 108/144/64 37/38/17
f 108/145/64 11/11/4 42/43/19
f 81/91/42 82/92/42 54/55/25
f 58/61/27 54/146/25 108/144/64
f 78/86/39 65/69/31 64/68/31
f 53/59/25 10/10/4 12/12/5
f 17/17/8 91/147/49 92/106/50
f 18/148/9 42/43/19 91/105/49
f 86/96/45 29/29/13 109/149/65
f 44/45/21 109/149/65 29/29/13
f 15/15/7 110/150/66 51/52/24
f 110/151/66 87/152/46 51/153/24
f 27/27/12 8/8/3 97/113/54
f 97/113/54 8/8/3 94/108/51
f 34/35/15 94/108/51 33/33/15
f 96/137/53 95/154/52 34/84/15
f 25/25/11 24/24/11 68/73/32
f 30/30/13 29/29/13 25/97/11
f 47/48/22 24/24/11 23/23/11
f 86/155/45 75/156/37 47/157/22
f 61/65/29 64/68/31 79/87/40
f 64/158/31 13/159/6 102/160/58
f 41/42/19 40/41/19 61/65/29
f 61/65/29 11/11/4 78/86/39
f 39/40/18 38/39/18 43/44/20
f 38/39/18 44/45/21 43/44/20
f 56/57/26 85/95/44 9/9/3
f 52/161/25 56/162/26 111/163/67
f 100/119/56 112/164/68 113/165/69
f 100/118/56 49/50/23 19/19/9
f 50/166/23 49/167/23 87/168/46
f 50/169/23 87/170/46 89/171/47
f 84/94/43 7/7/3 81/91/42
f 84/94/43 93/107/51 7/7/3
f 101/123/57 63/67/30 92/106/50
f 63/67/30 101/123/57 39/120/18
f 27/27/12 107/172/63 57/58/26
f 57/58/26 26/26/12 27/27/12
f 35/36/16 71/76/34 36/37/17
f 72/128/35 114/173/70 104/129/60
f 50/51/23 21/174/10 48/49/23
f 33/175/15 48/49/23 21/174/10
f 67/72/32 6/6/2 103/176/59
f 70/177/33 67/72/32 32/178/14
f 20/20/9 108/144/64 42/179/19
f 20/20/9 42/179/19 18/18/9
f 65/71/31 111/180/67 56/57/26
f 65/69/31 78/86/39 111/163/67
f 69/74/32 46/47/22 77/139/38
f 96/138/53 77/139/38 60/63/28
f 92/106/50 91/147/49 41/181/19
f 92/106/50 41/181/19 62/122/29
f 49/50/23 35/36/16 19/19/9
f 49/50/23 71/76/34 35/36/16
f 15/102/7 103/176/59 6/6/2
f 15/102/7 6/6/2 5/5/2
f 82/92/42 9/9/3 85/95/44
f 7/7/3 9/9/3 82/92/42
f 3/3/1 44/45/21 1/1/1
f 44/45/21 3/3/1 99/116/55
f 18/182/9 91/147/49 113/165/69
f 113/165/69 112/164/68 18/182/9
f 59/109/28 97/113/54 94/108/51
f 97/113/54 59/109/28 98/114/54
f 33/33/15 93/107/51 84/94/43
f 33/33/15 94/108/51 93/107/51
f 30/183/13 25/25/11 68/73/32
f 30/133/13 70/75/33 105/131/61
f 115/184/71 84/94/43 83/93/43
f 83/127/43 114/173/70 115/185/71
f 106/186/62 28/187/13 105/188/61
f 43/44/20 28/28/13 106/189/62
f 22/22/10 5/5/2 4/4/2
f 69/74/32 22/22/10 4/4/2
f 39/120/18 101/123/57 62/122/29
f 62/122/29 14/190/6 39/120/18
f 99/116/55 76/82/37 44/45/21
f 76/82/37 99/116/55 98/115/54
f 14/14/6 1/1/1 38/39/18
f 1/1/1 44/45/21 38/39/18
f 86/155/45 47/157/22 23/191/11
f 23/192/11 25/97/11 86/96/45
f 90/193/48 100/119/56 16/16/7
f 90/104/48 16/100/7 87/99/46
f 13/13/6 2/2/1 1/1/1
f 13/13/6 66/194/31 2/2/1
f 102/195/58 14/196/6 79/197/40
f 79/87/40 64/68/31 102/198/58
f 40/41/19 42/43/19 11/11/4
f 40/41/19 11/11/4 61/65/29
f 33/199/15 73/200/35 48/201/23
f 104/129/60 48/49/23 73/130/35
f 77/139/38 46/47/22 60/63/28
f 60/63/28 46/47/22 45/46/22
f 55/135/26 2/2/1 66/194/31
f 55/202/26 66/70/31 65/69/31
f 52/53/25 54/55/25 85/95/44
f 52/53/25 85/95/44 56/57/26
f 74/79/36 57/58/26 107/172/63
f 74/112/36 107/143/63 3/3/1
f 57/58/26 9/9/3 26/26/12
f 9/9/3 8/8/3 26/26/12
f 50/203/23 5/5/2 21/21/10
f 50/203/23 89/103/47 5/5/2
f 113/165/69 17/17/8 100/119/56
f 113/165/69 91/147/49 17/17/8
f 44/45/21 75/81/37 109/149/65
f 86/96/45 109/149/65 75/81/37
f 58/61/27 81/204/42 54/146/25
f 58/61/27 83/127/43 81/204/42
f 69/74/32 24/24/11 46/47/22
f 69/74/32 68/73/32 24/24/11
f 45/205/22 98/114/54 59/109/28
f 76/206/37 98/114/54 45/205/22
f 105/131/61 70/75/33 31/31/14
f 105/131/61 31/31/14 63/67/30
f 70/177/33 68/73/32 67/72/32
f 30/183/13 68/73/32 70/177/33
f 53/59/25 111/163/67 10/10/4
f 52/161/25 111/163/67 53/59/25
f 72/77/35 84/94/43 115/184/71
f 72/128/35 115/185/71 114/173/70
f 12/12/5 108/145/64 54/60/25
f 12/12/5 11/11/4 108/145/64
f 18/18/9 112/207/68 19/19/9
f 19/19/9 112/207/68 100/118/56
f 89/103/47 110/208/66 15/102/7
f 89/209/47 87/152/46 110/151/66
f 59/109/28 94/108/51 95/110/52
f 95/154/52 94/210/51 34/84/15
f 35/36/16 37/38/17 20/20/9
f 20/211/9 37/212/17 108/213/64
f 51/214/24 87/99/46 88/101/46
f 16/16/7 51/52/24 88/215/46
f 106/132/62 63/67/30 80/216/41
f 43/44/20 106/189/62 80/217/41
f 32/32/14 103/126/59 17/17/8
f 103/176/59 32/178/14 67/72/32
f 36/37/17 114/173/70 83/127/43
f 36/37/17 71/76/34 114/173/70
f 104/129/60 71/76/34 48/49/23
f 104/129/60 114/173/70 71/76/34
f 78/86/39 11/11/4 10/10/4
f 10/10/4 111/163/67 78/86/39
